<svg width="24" height="262" viewBox="0 0 24 262" fill="none" xmlns="http://www.w3.org/2000/svg">
<path d="M12 20V124.875V241" stroke="#A7ABC3" stroke-width="2"/>
<path d="M12 23L12 66.6585L12 115" stroke="#1C5CED" stroke-width="2"/>
<path d="M12 128V181.624V241" stroke="#526AE5" stroke-width="2"/>
<circle cx="12" cy="12" r="12" fill="#526AE5"/>
<path d="M13.1309 16H11.6221V11.8691L11.6367 11.1904L11.6611 10.4482C11.4105 10.6989 11.2363 10.8633 11.1387 10.9414L10.3184 11.6006L9.59082 10.6924L11.8906 8.86133H13.1309V16Z" fill="white"/>
<circle cx="12" cy="117" r="12" fill="#526AE5"/>
<path d="M14.3906 121H9.40039V119.95L11.1924 118.139C11.723 117.595 12.0697 117.219 12.2324 117.011C12.3952 116.799 12.5124 116.604 12.584 116.425C12.6556 116.246 12.6914 116.06 12.6914 115.868C12.6914 115.582 12.6117 115.368 12.4521 115.229C12.2959 115.089 12.0859 115.019 11.8223 115.019C11.5456 115.019 11.277 115.082 11.0166 115.209C10.7562 115.336 10.4844 115.517 10.2012 115.751L9.38086 114.779C9.73242 114.48 10.0238 114.268 10.2549 114.145C10.486 114.021 10.7383 113.926 11.0117 113.861C11.2852 113.793 11.5911 113.759 11.9297 113.759C12.3757 113.759 12.7695 113.84 13.1113 114.003C13.4531 114.166 13.7184 114.394 13.9072 114.687C14.096 114.979 14.1904 115.315 14.1904 115.692C14.1904 116.021 14.1318 116.33 14.0146 116.62C13.9007 116.907 13.7217 117.201 13.4775 117.504C13.2367 117.807 12.8102 118.238 12.1982 118.798L11.2803 119.662V119.73H14.3906V121Z" fill="white"/>
<circle cx="12" cy="250" r="12" fill="#526AE5"/>
<path d="M14.1123 248.458C14.1123 248.904 13.9772 249.283 13.707 249.596C13.4368 249.908 13.0576 250.123 12.5693 250.24V250.27C13.1455 250.341 13.5817 250.517 13.8779 250.797C14.1742 251.074 14.3223 251.448 14.3223 251.92C14.3223 252.607 14.0732 253.142 13.5752 253.526C13.0771 253.907 12.3659 254.098 11.4414 254.098C10.6667 254.098 9.97982 253.969 9.38086 253.712V252.428C9.65755 252.568 9.96191 252.682 10.2939 252.77C10.626 252.857 10.9548 252.901 11.2803 252.901C11.7783 252.901 12.1462 252.817 12.3838 252.647C12.6214 252.478 12.7402 252.206 12.7402 251.832C12.7402 251.497 12.6035 251.259 12.3301 251.119C12.0566 250.979 11.6204 250.909 11.0215 250.909H10.4795V249.752H11.0312C11.5846 249.752 11.9883 249.68 12.2422 249.537C12.4993 249.391 12.6279 249.142 12.6279 248.79C12.6279 248.25 12.2894 247.979 11.6123 247.979C11.3779 247.979 11.1387 248.019 10.8945 248.097C10.6536 248.175 10.3851 248.31 10.0889 248.502L9.39062 247.462C10.0417 246.993 10.818 246.759 11.7197 246.759C12.4587 246.759 13.0413 246.909 13.4678 247.208C13.8975 247.507 14.1123 247.924 14.1123 248.458Z" fill="white"/>
</svg>
