<svg width="20" height="21" viewBox="0 0 20 21" fill="none" xmlns="http://www.w3.org/2000/svg">
<g clip-path="url(#clip0)">
<path d="M17.6908 14.013C16.4864 12.9732 15.6251 10.21 15.6251 6.96438C15.6251 4.50769 14.0439 2.42488 11.8439 1.66217C11.6958 0.775844 10.9295 0.0986328 10.0001 0.0986328C9.07077 0.0986328 8.30452 0.775844 8.15637 1.66214C5.95637 2.42485 4.37513 4.50769 4.37513 6.96438C4.37513 10.2094 3.51452 12.9719 2.3095 14.013C1.63701 14.5941 1.25012 15.438 1.25012 16.3267C1.25012 17.361 2.08949 18.1992 3.12511 18.1992H8.12511C8.12511 19.2334 8.96448 20.0716 10.0001 20.0716C11.0357 20.0716 11.8751 19.2334 11.8751 18.1992H16.8751C17.9107 18.1992 18.7501 17.361 18.7501 16.3267C18.7501 15.4386 18.3639 14.5941 17.6908 14.013ZM3.12511 16.3267C3.12511 15.9822 3.27512 15.6545 3.53573 15.4292C5.2101 13.9837 6.25009 10.7399 6.25009 6.96435C6.25009 4.89902 7.93198 3.2194 10.0001 3.2194C12.0682 3.2194 13.7501 4.89902 13.7501 6.96435C13.7501 10.7399 14.7901 13.9837 16.4645 15.4292C16.7258 15.6551 16.8751 15.9822 16.8751 16.3267H3.12511Z" fill="#959CB6"/>
</g>
<defs>
<clipPath id="clip0">
<rect width="20" height="19.973" fill="white" transform="translate(0 0.0986328)"/>
</clipPath>
</defs>
</svg>
